<?xml version="1.0" standalone="no"?>
<!DOCTYPE svg PUBLIC "-//W3C//DTD SVG 20010904//EN"
 "http://www.w3.org/TR/2001/REC-SVG-20010904/DTD/svg10.dtd">
<svg version="1.0" xmlns="http://www.w3.org/2000/svg"
 width="700.000000pt" height="700.000000pt" viewBox="0 0 700.000000 700.000000"
 preserveAspectRatio="xMidYMid meet">
<metadata>
Created by potrace 1.11, written by Peter Selinger 2001-2013
</metadata>
<g transform="translate(0.000000,700.000000) scale(0.100000,-0.100000)"
fill="#000000" stroke="none">
<path d="M4145 6725 c-49 -14 -323 -98 -510 -155 -126 -39 -275 -85 -330 -102
-55 -16 -125 -38 -155 -48 -30 -10 -102 -32 -160 -49 -58 -18 -123 -38 -145
-46 -22 -7 -74 -23 -115 -35 -41 -12 -86 -26 -100 -30 -14 -5 -268 -84 -565
-176 -297 -91 -605 -186 -685 -211 -80 -24 -180 -55 -222 -68 -43 -13 -93 -31
-113 -41 -66 -31 -115 -113 -115 -192 0 -25 111 -399 241 -812 17 -52 34 -108
39 -125 13 -50 179 -593 280 -915 44 -142 263 -853 347 -1125 48 -157 102
-333 274 -890 22 -71 56 -179 75 -240 64 -204 72 -230 114 -365 23 -74 59
-191 80 -260 21 -69 59 -192 84 -275 55 -177 78 -228 122 -262 40 -30 107 -51
152 -46 18 1 128 32 245 69 217 67 680 210 1162 359 149 46 365 112 480 148
116 36 233 72 260 80 28 9 147 46 265 82 118 37 235 73 260 80 25 7 83 25 130
40 47 15 130 40 185 57 152 46 189 71 225 149 37 81 42 60 -169 739 -77 247
-109 351 -230 745 -60 198 -168 549 -240 780 -71 231 -204 663 -296 960 -205
665 -232 753 -305 985 -33 102 -65 208 -74 235 -41 143 -229 748 -248 800 -24
69 -57 108 -112 137 -35 18 -105 30 -131 23z"/>
</g>
</svg>
